<?xml version="1.0" encoding="utf-8"?>
<!-- Generator: Adobe Illustrator 24.0.1, SVG Export Plug-In . SVG Version: 6.00 Build 0)  -->
<svg version="1.1" id="Layer_1" xmlns:serif="http://www.serif.com/"
	 xmlns="http://www.w3.org/2000/svg" xmlns:xlink="http://www.w3.org/1999/xlink" x="0px" y="0px" viewBox="0 0 2000 2000"
	 style="enable-background:new 0 0 2000 2000;" xml:space="preserve">
<style type="text/css">
	.st0{fill:#FFFFFF;}
	.st1{fill:#FBECDB;}
	.st2{fill:#A8D29F;}
	.st3{fill:#4A75CB;}
	.st4{fill:#699DEE;}
	.st5{fill:#D86713;}
	.st6{fill:#F1A34F;}
	.st7{fill:#C95C12;}
	.st8{fill:#82B378;}
	.st9{fill:#FFB973;}
	.st10{fill:#ED975D;}
	.st11{fill:#2B478B;}
	.st12{fill:#233862;}
	.st13{fill:#1E3D70;}
	.st14{fill:#FFB27D;}
	.st15{fill:#2C3A64;}
	.st16{fill:#4A82D3;}
	.st17{fill:#A9453D;}
	.st18{fill:#EE9849;}
	.st19{fill:#E58638;}
	.st20{fill:#2A4E96;}
	.st21{fill:#35488B;}
	.st22{fill:#2E3552;}
	.st23{fill:#4271BC;}
</style>
<rect x="-1066.8" y="-147.5" class="st0" width="3991.6" height="2280.9"/>
<g>
	<g>
		<path class="st1" d="M-255.3,1667.1c0,0-282.7-602,274.5-602c294.4,0,173.1-165.2,373.2-356.3c200.1-191.1,900.1-343.9,1049,25.2
			c149,369.1-219.2,649.4,136.6,601.3c427.5-57.8,596.4,331.8,596.4,331.8H-255.3z"/>
		<path class="st2" d="M2034.2,1590.7c-26.4-19.3-80.3-6.3-120.1,7.7c-5.9-8.4-13.2-17-21.9-25.4c85.7-55.2,204.1-173,141.3-182.9
			c-54.5-8.7-128.1,97.3-167.5,161.8c-40.8-27.5-103.4-47.7-199-40.7c-248,18.2-441.8-141.8-584.6-88.4
			c-113.6,42.4-217.6,66.2-318,58.1c4.3-73.3,5.3-217.3-52.3-232.2c-58.4-15.2-1.1,148.3,30.7,229.9c-7.5-1-14.9-2.1-22.4-3.4
			c-20.6-40.7-54.6-93.9-92-95.7c-35.2-1.7,8.2,46.2,50.9,86.7c-122.7-25.8-268.3,74-270.7,192h1532.3c0,0-2.7-17.2-14.7-39.9
			C1985.6,1617,2062.8,1611.7,2034.2,1590.7z"/>
		<g>
			<g>
				<rect x="339.2" y="1566.9" class="st3" width="403.8" height="91.2"/>
				<rect x="214.7" y="1566.9" class="st4" width="403.8" height="91.2"/>
			</g>
		</g>
		<g>
			<g>
				<g>
					
						<rect x="901.9" y="1237.8" transform="matrix(-1 -1.224647e-16 1.224647e-16 -1 2104.5876 2895.9053)" class="st5" width="300.7" height="420.3"/>
					
						<rect x="809.2" y="1237.8" transform="matrix(-1 -1.224647e-16 1.224647e-16 -1 1919.149 2895.9053)" class="st6" width="300.7" height="420.3"/>
				</g>
			</g>
			<polygon class="st7" points="1109.9,1237.8 1202.6,1300.9 1202.6,1237.8 			"/>
		</g>
		<g>
			<path class="st8" d="M181.7,1330.9c0,0-56.2,41.8-67.2,39.3c-11-2.5,41.1-45.1,41.1-45.1c-19.6-9.4-80.5-3.5-80.5-3.5
				s-20.3,65.4-30.3,60.3c-10-5.2,20.9-57,20.9-57c-21.8-1.3-48.6,14.9-48.6,14.9c-36.6,28.9,2.4,74.5,2.4,74.5s-7.5,22.5-30.7,43
				c0,0-33,24.4-35.3,68.1l6,0.5c0,0,9.5-40.7,26.8-59.9c0.7-0.7,1.6-1.7,2.9-2.9c2.8-2.6,4.8-4.6,6.1-6
				c8.6-8.3,20.5-18.8,26.2-19.8c0,0-0.3-1.1-0.2-2.9c0.1,0.9,0.2,1.9,0.2,2.9c2,23,46.6,43.1,74.1,47.3c27.5,4.1,19-7.2,9.5-23.9
				c-9.5-16.7-39.4-24.2-46.3-32c-6.8-7.7,7.3-7.7,23.9-0.2c16.6,7.6,18.8,27.7,45.4,40.4c26.6,12.7,66.5-31.4,66.5-31.4
				c-21.2-1.1-51.4-24.1-50.3-31.1c1.1-7,51.3,12.1,59.9,13.1c8.6,0.9,28.1-9.8,31.1-44.3C238.3,1340.5,181.7,1330.9,181.7,1330.9z"
				/>
			<g>
				<path class="st2" d="M-18.2,1308.9c0,0-81.9-45.9-43.7-108.1c0,0,30.6-38.2,63.3-48c0,0-17.5,92.8,0,95
					c17.5,2.2,12-104.8,12-104.8s86.2-41.5,120.1-38.2c0,0-53.5,90.6-36,88.4c17.5-2.2,77.5-93.9,77.5-93.9s88.4-16.4,102.6,36
					c14.2,52.4-8.7,78.6-21.8,81.9c-13.1,3.3-97.2,2.2-95,13.1c2.2,10.9,59,28.4,90.6,18.6c0,0-34.9,86.2-80.8,81.9
					c-45.9-4.4-60-32.8-88.4-34.9s-49.1,5.5-34.9,13.1c14.2,7.6,62.2,2.5,85.2,22c22.9,19.5,41.5,31.5-1.1,40.2
					c-42.6,8.7-119,3.3-134.3-29.5C-18.2,1308.9-18.2,1308.9-18.2,1308.9z"/>
				<path class="st8" d="M237.3,1151.7c0,0-229.3,74.2-255.5,157.2c0,0,1.1,37.1-21.8,79.7c0,0-35.4,53.7-15.2,119l9.1-2.4
					c0,0-8-64.8,7.1-102.4c0.6-1.4,1.5-3.4,2.6-5.8c0,0,0,0,0,0c2.7-5.4,4.6-9.3,5.7-12.2c8.2-16.8,20-38.6,27.8-43.2
					C-2.9,1341.6-54.2,1269.6,237.3,1151.7z"/>
			</g>
			<path class="st6" d="M-20.9,1649.3c88.6,0,160.4-71.8,160.4-160.4h-320.8C-181.3,1577.5-109.5,1649.3-20.9,1649.3z"/>
			<path class="st9" d="M18.5,1648.1c-6.5,0.8-13.2,1.2-19.9,1.2c-88.6,0-160.4-71.8-160.4-160.4h39.8
				C-121.9,1570.8-60.6,1638.3,18.5,1648.1z"/>
			<path class="st6" d="M121.9,1638.3h-285.6c-10.9,0-19.8,8.9-19.8,19.8h325.2C141.7,1647.2,132.8,1638.3,121.9,1638.3z"/>
			<path class="st5" d="M140.6,1489h-324.8c-1.4,0-2.5,1.1-2.5,2.5s1.1,2.5,2.5,2.5h324.8c1.4,0,2.5-1.1,2.5-2.5
				S142,1489,140.6,1489z"/>
		</g>
		<g>
			<path class="st10" d="M1378.2,644.4c-4.6-0.7-18.7,12.2-18.7,12.2l0,0c-29.9,3.5-73.6,11.4-89.4,14.4
				c-11.2,2.1-41.2-8.1-70.5-19.8c-34.9-14-68.8-30.1-68.8-30.1c-19.3-1-41.3,34.3-2.1,56.8c6,3.4,28.5,9.3,54.4,14.6c0,0,0,0,0,0
				c35.8,7.4,78,13.8,92.4,11.5c16.7-2.6,64-19.9,92.1-33.1v0c0,0,0,0,0.1,0c0.1,0,0.2-0.1,0.3-0.1c1.7-0.8,8.6-3.9,13.2-3.6
				c5.3,0.3,17-9.3,17.4-11.9C1399,652.6,1382.9,645.1,1378.2,644.4z"/>
			<path class="st11" d="M1341.7,1089.1l-16.5,3.3c0,0-75.4-84.7-87-120.3c-6.2-19-46-27.3-87.6-38c-36.2-9.4-73.7-20.6-91.7-42.6
				c-38.5-47.3,24.2-105.3,24.2-105.3s66.7,39.7,124.3,80.6c40.2,28.6,76,57.9,81.4,74.7C1301.9,982.4,1329.7,1060.1,1341.7,1089.1z
				"/>
			<path class="st12" d="M1319.7,1117h9.3c3.1-0.5,5.4-1.4,8.6-1.8c4.8-0.6,7.1,1.3,7.5,1.8c0.1,0.1,0.1,0.1,0.1,0.1h39.4
				c1-1.4,0-4.7-0.9-7.1c-0.6-1.6-2-2.9-3.7-3.4c-4.2-1.2-12.4-2.3-19.9-9.1c-4.2-3.8-20.5-14.1-20.5-14.1l-0.1,0
				c-0.4,0-2.1,0.5-9.4,6.8c-3.8,3.2-10.3-4.5-10.3-4.5s-1.2,1-2.1,2.9c-0.7,1.5-1.3,3.5-0.8,6c0.6,3.5-1.3,10.1-2.8,14.6
				c-0.9,2.7-1.7,4.6-1.7,4.6S1311.7,1116,1319.7,1117z"/>
			<path class="st13" d="M1207.5,866.8l-56.8,67.3c-36.2-9.4-73.7-20.6-91.7-42.6c-38.5-47.3,24.2-105.3,24.2-105.3
				S1149.9,825.8,1207.5,866.8z"/>
			<path class="st11" d="M1155.8,831.6c0,0-4.6,14.4-12,36.2c-9.4,27.5-23.5,66.6-38.7,102.9c-3.3,8-6.8,15.8-10.2,23.4
				c-12.7,27.9-25.6,51.9-37.1,64c-20.5,21.9-70.4,162.4-70.4,162.4L975,1217c0,0-17.3-120,44.1-188.3c0.7-0.7,1.2-1.6,1.2-2.5
				c0,0,0,0,0,0c0.8-10.1,3.7-55.4,10.1-101.3c1.6-11.3,3.3-22.5,5.3-33.4c0.1-0.7,0.3-1.4,0.4-2.1c9.3-50,18.3-72.2,29.8-83.4
				l84.9,24.2L1155.8,831.6z"/>
			<path class="st12" d="M973.6,1237.7h9.3c3.1-0.5,5.4-1.4,8.6-1.8c4.8-0.6,7.1,1.3,7.5,1.8c0.1,0.1,0.1,0.1,0.1,0.1h39.4
				c1-1.4,0-4.7-0.9-7.1c-0.6-1.6-2-2.9-3.7-3.4c-4.2-1.2-12.4-2.3-19.9-9.1c-4.2-3.8-20.5-14.1-20.5-14.1l-0.1,0
				c-0.4,0-2.1,0.5-9.4,6.8c-3.8,3.2-10.3-4.5-10.3-4.5s-1.2,1-2.1,2.9c-0.7,1.5-1.3,3.5-0.8,6c0.6,3.5-1.3,10.1-2.8,14.6
				c-0.9,2.7-1.7,4.6-1.7,4.6S965.7,1236.7,973.6,1237.7z"/>
			<path class="st14" d="M991.8,668.3c0,0-14.2,34.7-30.6,68.5c-13.8,28.4-29.1,56.2-38.8,62.1c-13.7,8.4-51.4,31.9-75.8,49.5
				c0,0-19.1-0.1-22,3.5c-3,3.7-9.8,20.1-7.8,21.7c2,1.7,17.2,0.9,20.8-2.9c3.2-3.3,10.4-5.7,12.1-6.2c0.1,0,0.2-0.1,0.3-0.1
				c0,0,0.1,0,0.1,0v0c29.7-9.1,76.3-28.2,90.4-37.5c12.1-8,39.1-41.2,60.5-70.7c0,0,0,0,0,0c15.6-21.4,28.3-40.9,30.4-47.4
				C1045.5,665.9,1005.5,654.6,991.8,668.3z"/>
			<path class="st15" d="M1066.1,532.1c-1.7-2.5-3.4-4.6-5.1-6.6c2.1,0,4.4-0.2,6.3-0.9c5-2.1,7.3-17.9,6.5-22.6
				c-0.7-4.7-7.7-18.3-16.2-19.6c-8.5-1.4-17.4,8.1-17.4,8.1c1.6-6.8,16-10.8,16-10.8c-29.8,5.5-28.2,25.3-28,27.2
				c-27.2-9.7-43.2,41.6-43.2,41.6l70.5,41.6c0,0,0.2-11.3,6.9-10.6C1073,580.6,1081.7,554.8,1066.1,532.1z"/>
			<path class="st14" d="M1070.6,639.7c-16.2,7.6-37.7-3.4-37.6-3.5c1.4-1.4,0.9-5.5-0.4-11c-1.3-5.7-4.3-13.4-9.8-22.7
				c-1.2-2-2.3-3.9-3.7-6l1.9-0.7l31.4-12.6c0,0,5.1,9.1,10.4,17.5c4.5,6.9,9.2,13.2,11.3,13
				C1074.3,613.6,1095.1,627.9,1070.6,639.7z"/>
			<path class="st10" d="M1052.4,586.4c-0.8,11.2-4.6,31.4-19.8,38.9c-1.3-5.7-4.3-13.4-9.8-22.7L1052.4,586.4z"/>
			<path class="st14" d="M1021,615.4c0,0,40.9-16.1,30.5-41.5c-10.4-25.3-12.2-44.5-38.8-35.3c-26.6,9.2-27.6,21-26.2,30.3
				C987.9,578.2,1010.1,618.9,1021,615.4z"/>
			<path class="st15" d="M1036.3,568.1c18.9-2.7,24.4-10.3,24.4-10.3s-17.4-5-27.6-22c0,0-21.2-7.2-37,4.8c-1,1.2-1.6,2.7-2,4.4
				c-3.6-1.2-9-0.9-12.2,9.3c-4.7,15.3,12,32.1,12,32.1c4.1-1.1-0.5-14.8-1.2-22.1c-0.5-5.4,2.4-12.2,4-15.5
				c2,2.6,21.9,27.7,46.3,28.7c0,0-12.9-4.5-24.6-13.2C1024.3,567.2,1030.5,568.9,1036.3,568.1z"/>
			<path class="st4" d="M1148.6,692c-0.3-1.2-0.7-2.5-1.1-3.8c6.1-11.6,9.1-22.1,10.3-31c2.8-18.7-2-30.3-2-30.3s-28.4-15.1-40.9-17
				c-0.1,0-0.1,0-0.2,0c-0.1,0-0.3,0-0.5,0c-12.7-1.7-40.1,3.8-40.1,3.8s5.3,14.1-9.6,23.5c-14.9,9.4-30.8-2.4-30.8-2.4
				c-0.5,0.3-1,0.7-1.5,1.1c0,0,0,0,0,0c0,0-39.2,25.9-42.8,31.8c-3.5,5.9-18.6,35.2-18.6,35.2s4.8,24.6,57.8,26.7
				c4.4,10.6,7.7,20.9,8.8,29.5c4.2,33.4-0.7,59.7,4.2,79.2c4.9,19.5,93.4,8.4,109.4,4.6c16-3.8,12.4-20.9,13.6-37.5
				C1166.2,784.4,1153.8,710.4,1148.6,692z"/>
			<path class="st16" d="M1157.8,657.2c-1.3,8.9-4.3,19.4-10.4,31.1c-1.4-6.1-7.1-28.6-16.2-38.7
				C1131.2,649.6,1146.6,651,1157.8,657.2z"/>
		</g>
		<g>
			<path class="st10" d="M797.6,876c0,0,16.5-20,20-22.3c3.5-2.4,19.1-6.5,20-5.7c0.9,0.8,0.9,2-1,3.7c-1.9,1.7-9.3,6-8.2,6.5
				c1.1,0.5,23.3-10.6,26.5-6.9c3.2,3.7-1.8,19.1-10.4,26.4c-8.6,7.4-34.1,10.5-35.7,11.5C795.2,898,797.6,876,797.6,876z"/>
			<path class="st14" d="M507.5,829.9c0,0,23.7,28.1,53.8,16.3c0,0,6.5-15.7,6.6-27.3c0-1.4,0-2.8,0-4.1c0.2-13,0.6-20.3,0.6-20.3
				s0,0,0,0c-1.4-0.6-46.1-18.9-46-17.4C523.2,812.3,507.5,829.9,507.5,829.9z"/>
			<path class="st10" d="M527,785.5c4.3,8,19.1,23.6,41,29.3c0.2-13,0.6-20.3,0.6-20.3s0,0,0,0C567.3,794.2,525.7,783.2,527,785.5z"
				/>
			<path class="st14" d="M577.9,793.2c0,0-50.3,11.8-57.2-19.6c-6.9-31.4-18-51.1,13.8-59.9c31.8-8.9,40.7,1.7,45.5,11.7
				C585,735.2,590.8,789.3,577.9,793.2z"/>
			<path class="st17" d="M522.5,782.1c-0.7,0.4-11.5,3.8-32-37.1c-3.2-6.4-5.4-20.3,2.1-32.5c7.5-12.2,34.1-21.9,56.2-26.1
				c22.1-4.2,27.4,8.2,32.6,20.7c5.5,13.1,21.2,23.9,21.2,23.9c-19,10.6-42-4.6-49.9-2.1c-7.9,2.5-10.8,15-11.4,19
				c-0.6,4-1.5,7.4-11.5,3.8c-10-3.6-4.5,14.2-2.9,17.6C526.8,769.4,528.2,778.5,522.5,782.1z"/>
			<g>
				<path class="st15" d="M392.9,1566.9h-30.5c-6.4,0-13.5-6.5-15.3-18.3c-1.8-11.9-14.9-18.3-17.7-28c-2.8-9.7,11.7-23.4,11.7-23.4
					l2.4-3.2l2.5-3.3l24.1,5.7c0,0,0.6,5.8,1,13.2c0.3,5.4,0.4,11.5,0.1,17c-0.7,12.9,3.6,26.9,14.9,29.4
					C397.6,1558.6,392.9,1566.9,392.9,1566.9z"/>
				<path class="st15" d="M604.9,1567.2h-80.7c-0.8-0.2-1.4-0.3-1.7-0.5c-5.4-2.8-3.7-24-3.1-30.6c0.1-1.2,0.2-1.9,0.2-1.9
					s28.4-23.4,32.3-5.5c0.1,0.6,0.3,1.1,0.4,1.6v0c4.9,16.7,27,24.3,39.7,26.5C601.7,1558.5,604.3,1564.3,604.9,1567.2z"/>
				<path class="st18" d="M588.6,1100.5c0,0-4.3,53.8-9.4,118.4c-6.9,87.8-15.2,195.7-16,216.1c-1.4,35.5-7.1,92.2-7.1,92.2
					s-13.5,13.5-40.4,7.8c0,0-24-81-30.9-166.8c-0.1-1.4-0.2-2.8-0.3-4.2c-6.4-87.3-16.3-271-16.3-271L588.6,1100.5z"/>
				<path class="st19" d="M588.6,1100.5c0,0-4.3,53.8-9.4,118.4l-94.4,149.4c-0.1-1.4-0.2-2.8-0.3-4.2c-6.4-87.3-16.3-271-16.3-271
					L588.6,1100.5z"/>
				<path class="st18" d="M568.9,1106.9c0,0-77.7,194.8-128.8,286.3c-51.1,91.5-67,117.1-67,117.1s-29.3-11.7-31.9-19.7
					c0,0,19.5-176.7,53.7-219.8c19.3-24.3,42-97.4,43.1-122.9c1.1-25.5,6.9-76.1,6.9-76.1L568.9,1106.9z"/>
			</g>
			<g>
				<path class="st10" d="M391.1,1074.4c0,0-2,24.3-3.5,28.1c-1.5,3.7-11.3,15.3-12.4,15.1c-1.1-0.2-1.8-1.1-1.2-3.4
					c0.6-2.4,4-9.6,2.9-9.5c-1.1,0.2-12.3,20.7-16.8,19.5c-4.5-1.2-8.9-15.7-6.2-26c2.7-10.3,20.7-26.5,21.4-28.1
					C381.1,1056.1,391.1,1074.4,391.1,1074.4z"/>
				<path class="st13" d="M382.7,1080.6c8.6,2.8,10,2.1,10,2.1s41.9-76.2,46.1-83.2c4.2-7,88.9-85.5,88.9-85.5L505.9,833
					c0,0-96.3,124.6-106.6,142.5c-17.2,29.6-27.2,98.2-27.2,98.2S376,1078.4,382.7,1080.6z"/>
			</g>
			<path class="st20" d="M605,945.9c-0.3,16.7-1.3,35.4-2.6,54.4c-0.1,1.1-0.2,2.3-0.2,3.4c-0.8,11.8-1.7,23.6-2.8,35.1
				c-0.4,4.6-0.9,9.2-1.3,13.7l-0.1,0.6c0,1.7-0.2,3.5-0.4,5.2c-4.2,43.1-8.7,77.2-9.5,77.7c-1,0.7-2.1,1-3.3,0.8
				c-11.3-1.4-45.1,1.1-72.7-4.9c-23.3-4.9-43.4-14.2-64.7-26.8c-2.8-1.7-9.3-6.1-8.7-9.4c0.5-3.6,1.5-8.9,2.7-15.5
				c4.2-22.9,11.4-62.4,13.9-108.6c0.5-8.6,1.2-17.1,2.1-25.5c2.4-21.8,6.2-42.4,11.3-60.8c9.5-34.1,23.4-60.2,40.9-70.4
				c2.3-1.3,14.6,6.5,25.8,13.8c10.4,6.7,21.4,8.5,32,7.6l9.4,10.4c11.4,13.2,23.5,30.8,26.8,55.8c0.2,1.8,0.5,3.8,0.6,5.9
				C605.1,918.6,605.3,931.5,605,945.9z"/>
			<path class="st13" d="M605,945.9c-0.3,16.7-1.3,35.4-2.6,54.4c-0.1,1.1-0.2,2.3-0.2,3.4c-64.6-40.4-74.6-114.4-74.6-114.4
				c31.8,1.4,57,8.7,76.5,19.1C605.1,918.6,605.3,931.5,605,945.9z"/>
			<g>
				<path class="st20" d="M807.4,878c-3.3-9-8.5-8.4-8.5-8.4s-96.1,23.9-104.7,25c-8.6,1-103.4-37-103.4-37s-37.3-16.7-54.8-1.5
					c-15.2,13.3-15.9,30.1-12.3,44.3c4.2,16.8,18.5,29.3,35.7,31.5c38.7,4.9,115.9,14.2,132,11.9c36-5,117.6-52.1,117.6-52.1
					S810,885.1,807.4,878z"/>
			</g>
		</g>
		<g id="man_2_">
			<g>
				<path class="st15" d="M1754.6,1054.1c0,0,13.3,12.4,10.7,21.2c-2.6,8.8-14.6,14.6-16.3,25.4s-8.1,16.6-14,16.6s-27.9,0-27.9,0
					s-4.3-7.6,6.1-9.8c10.4-2.3,14.3-14.9,13.7-26.6c-0.7-11.7,1-27.3,1-27.3l22.1-5.2L1754.6,1054.1z"/>
				<path class="st15" d="M1588.2,1115.7c-1.4,0.7-6.1,1.1-12.6,1.5h-63.2c0.2-1.9,1.7-8.6,12-10.2c11.7-1.9,31.9-8.7,36.4-23.6
					c0.2-0.5,0.3-1,0.4-1.5c3.6-15.9,29.6,4.9,29.6,4.9s0.1,0.6,0.2,1.7C1591.6,1094.4,1593.2,1113.3,1588.2,1115.7z"/>
				<path class="st21" d="M1527.5,689.2c0,0,4,49.3,8.6,108.6c6.3,80.6,13.9,179.5,14.7,198.3c1.3,32.6,6.5,84.6,6.5,84.6
					s12.4,12.4,37.1,7.2c0,0,22-74.3,28.3-153c0.1-1.3,0.2-2.6,0.3-3.9c5.9-80.1,15-248.7,15-248.7L1527.5,689.2z"/>
				<path class="st15" d="M1527.5,689.2c0,0,4,49.3,8.6,108.6l86.6,137.1c0.1-1.3,0.2-2.6,0.3-3.9c5.9-80.1,15-248.7,15-248.7
					L1527.5,689.2z"/>
				<path class="st21" d="M1545.6,695c0,0,71.3,178.7,118.1,262.7c46.9,84,61.5,107.4,61.5,107.4s26.9-10.7,29.3-18.1
					c0,0-17.9-162.1-49.3-201.6c-17.7-22.3-38.6-89.3-39.5-112.8c-1-23.4-6.3-69.8-6.3-69.8L1545.6,695z"/>
			</g>
			<g>
				<path class="st14" d="M1325.7,598.1c0,0-19.3-4.4-22.6-4.2c-3.3,0.2-14.6,5-14.8,5.9c-0.2,0.9,0.4,1.7,2.4,1.8
					c2,0.1,8.4-0.7,8,0.1c-0.4,0.8-19.1,4.4-19.3,8.2c-0.2,3.8,10,10.7,18.6,11.2c8.6,0.5,25.6-9.6,27.1-9.7
					C1337.5,610.3,1325.7,598.1,1325.7,598.1z"/>
				<path class="st19" d="M1317.5,603c-2.8-8.8-2.1-10.2-2.1-10.2s78.4-42.4,85.5-46.7c7.2-4.3,88.2-90.5,88.2-90.5l83,22.8
					c0,0-128.4,97.8-146.8,108.3c-30.4,17.4-100.8,27.3-100.8,27.3S1319.6,610,1317.5,603z"/>
			</g>
			<path class="st14" d="M1514.2,413.7c0,0-29.1,51.2-57.5,57.9c0,0,1.2-17.2,8.1-28.9c-2.8-3.3-5.3-6.4-7.5-9.2
				c-7.2-9.2-10.6-14.8-10.6-14.8l9.6-25.9l6.5-17.6c3.1,5.7,6.6,10.6,10.2,14.7C1491.8,411.3,1514.2,413.7,1514.2,413.7z"/>
			<path class="st10" d="M1473.2,389.9c0,0,3.5,25.6-15.9,43.6c-7.2-9.2-10.6-14.8-10.6-14.8l9.6-25.9
				C1466.8,389.6,1473.2,389.9,1473.2,389.9z"/>
			<path class="st14" d="M1439.1,422.5c0,0,43.5-16.9,32.5-43.8c-11-26.9-12.7-47.2-41-37.5c-28.2,9.7-29.4,22.1-27.9,32
				C1404.2,383,1427.5,426.2,1439.1,422.5z"/>
			<path class="st18" d="M1663.6,676.3c-17.5,25.2-148.6,58.9-147,41.4c0.6-6.7,1.4-18.4,0-34.4c-0.3-3.7-0.8-7.7-1.4-11.9
				c-3.3-22.9-11.2-52.4-28.9-86.5c-1.3-2.6-2.7-5.1-4.1-7.7c-7.3-13.2-13.5-27.2-18.2-40.8c-9.1-26.2-12.7-51.3-8.2-67.8
				c0-0.1,0-0.2,0.1-0.2c27.4-12.7,38-61.8,38-61.8s93.5,16.8,145.8,141.4C1639.7,547.9,1678.8,654.4,1663.6,676.3z"/>
			<path class="st19" d="M1516.5,683.3c-0.3-3.7-0.8-7.7-1.4-11.9c-3.3-22.9-11.2-52.4-28.9-86.5c3-18.4,7.2-33.6,11.8-40.5
				c18.6-27.9,29.5-32.3,29.5-32.3S1555.5,630,1516.5,683.3z"/>
			<g>
				<path class="st14" d="M1369.2,655.3c0,0-25.9,1.4-29.9,2.8c-4,1.4-16.6,11.5-16.5,12.7c0.1,1.2,1.1,2,3.6,1.4
					c2.5-0.5,10.3-3.9,10.1-2.8c-0.2,1.1-22.3,12.4-21.3,17.2c1.1,4.8,16.4,9.9,27.4,7.4c11-2.5,28.7-21.2,30.5-21.8
					C1388.4,666.4,1369.2,655.3,1369.2,655.3z"/>
				<path class="st18" d="M1364.3,665.1c-5.2-8.4-1.4-12.2-1.4-12.2s79.9-62.5,86.1-68.9c6.3-6.3,35.3-106.9,35.3-106.9
					s10-40.7,33.4-45.2c20.3-3.9,34.4,6.1,43.5,17.9c10.9,14,12,33.4,2.9,48.7c-20.4,34.4-61.5,102.6-73.5,114.2
					c-26.7,25.9-116.2,62.2-116.2,62.2S1368.4,671.7,1364.3,665.1z"/>
			</g>
			<path class="st11" d="M1477.8,328.7c0.3-0.6,1.2-1.2,3.3-1.9c0,0-2-0.7-4.4-0.2c-1.2-3-4.2-8-9.7-8.1c0,0,3.2,0.8,4.4,4
				c-7.6-4.8-21.8-6.2-57,5.5c-46.5,15.5-23.3,42.5-16.2,44.6c7,2.2,20-11.7,31.7-13.6c11.7-1.9,18,14.4,22.4,15.7
				c4.4,1.3,1.9-2.3,6.6-6.1c4.7-3.7,7.3,5,7.2,11.1c-0.1,6.1,9,11.9,9,11.9s0,0,5.3-9.8c5.3-9.8,3.9-45.2-1.2-51.6
				C1478.7,329.8,1478.3,329.2,1477.8,328.7z"/>
		</g>
		<path class="st22" d="M2241.3,1667.5H-383.3c-1.9,0-3.5-1.6-3.5-3.5v-2.5c0-1.9,1.6-3.5,3.5-3.5h2624.6c1.9,0,3.5,1.6,3.5,3.5v2.5
			C2244.8,1665.9,2243.2,1667.5,2241.3,1667.5z"/>
		<polygon class="st23" points="743.1,1565.9 743.1,1618.5 618.5,1565.9 		"/>
		<rect x="1396.9" y="1117.2" class="st3" width="411.8" height="540.9"/>
		<rect x="1269.9" y="1117.2" class="st4" width="411.8" height="540.9"/>
		<polygon class="st23" points="1808.8,1117.2 1808.8,1198.1 1681.8,1117.2 		"/>
	</g>
</g>
</svg>
